<?xml version="1.0" standalone="no"?>
<!DOCTYPE svg PUBLIC "-//W3C//DTD SVG 20010904//EN"
 "http://www.w3.org/TR/2001/REC-SVG-20010904/DTD/svg10.dtd">
<svg version="1.0" xmlns="http://www.w3.org/2000/svg"
 width="1000.000000pt" height="1000.000000pt" viewBox="0 0 1000.000000 1000.000000"
 preserveAspectRatio="xMidYMid meet">
<metadata>
Created by potrace 1.14, written by Peter Selinger 2001-2017
</metadata>
<g transform="translate(0.000000,1000.000000) scale(0.100000,-0.100000)"
fill="#000000" stroke="none">
<path d="M3005 6885 c-231 -36 -454 -135 -818 -364 -99 -62 -181 -110 -184
-108 -2 3 -26 109 -52 236 -26 126 -50 233 -54 237 -5 6 -1363 -187 -1434
-203 -22 -5 -23 -8 -23 -138 l0 -133 113 -16 c222 -33 240 -43 274 -154 17
-53 18 -142 18 -1297 l0 -1240 -23 -48 c-41 -81 -129 -115 -345 -133 l-87 -7
0 -133 0 -134 990 0 990 0 0 134 0 133 -106 11 c-167 17 -229 59 -253 173 -15
67 -15 1831 -1 1984 13 133 32 207 78 300 56 115 125 190 235 258 75 46 134
65 249 79 274 35 467 -108 550 -407 l23 -80 3 -1045 c2 -761 0 -1059 -8 -1098
-23 -106 -99 -152 -272 -168 l-78 -6 0 -134 0 -134 935 0 935 0 0 134 0 134
-77 7 c-156 13 -224 47 -259 127 -18 41 -19 92 -22 968 -2 646 0 960 8 1040
20 194 78 352 171 465 143 173 383 243 600 175 166 -51 286 -191 345 -400 17
-61 19 -134 22 -1119 3 -1167 5 -1125 -60 -1188 -39 -37 -109 -59 -220 -68
l-78 -7 0 -134 0 -134 990 0 990 0 0 134 0 133 -87 7 c-237 18 -315 50 -360
151 -17 37 -18 111 -24 1165 -6 1240 -4 1208 -70 1405 -126 377 -421 596 -868
645 -232 26 -458 -3 -675 -84 -164 -62 -400 -192 -680 -374 l-110 -71 -35 52
c-175 263 -430 425 -741 473 -114 17 -305 17 -415 -1z"/>
<path d="M8035 4540 c-152 -31 -293 -121 -379 -244 -84 -118 -126 -264 -126
-438 0 -331 155 -570 431 -662 75 -24 215 -39 305 -32 376 31 606 296 606 701
0 349 -170 588 -471 664 -89 22 -281 28 -366 11z"/>
</g>
</svg>
